# xmcd
# 
# Track frame offsets:
#     150
#     11046
#     28300
#     50629
#     72930
#     88526
#     106957
#     118744
#     133118
#     146442
#     170282
#     183167
#     198431
# 
# Disc length: 2892
# 
# Revision: 80583677
# Processed by: cddbd v1.5.2PL0 Copyright (c) Steve Scherf et al.
# Submitted via: BonkEnc v1.0.15
# 
DISCID=b70b4a0d
DTITLE=Henri Salvador - Révérence
DYEAR=2006
DGENRE=Blues
TTITLE0=La vie c'est la vie
TTITLE1=Mourir a Honfleur
TTITLE2=Dans mon ile
TTITLE3=Cherche la rose　[avec Caetano Veloso]
TTITLE4=L'amour se trouve au coin de la rue
TTITLE5=Tu sais je vais t'aimer
TTITLE6=J'aurais aime
TTITLE7=Italie (un tableau de maitre)
TTITLE8=D'abord
TTITLE9=Les amours qu'on delaisse
TTITLE10=Alleluia ! Je l'ai dans la peau
TTITLE11=Les dernieres hirondelles
TTITLE12=Tu sais je vais t'aimer　[avec Gilberto Gil]
EXTD=
EXTT0=
EXTT1=
EXTT2=
EXTT3=
EXTT4=
EXTT5=
EXTT6=
EXTT7=
EXTT8=
EXTT9=
EXTT10=
EXTT11=
EXTT12=
PLAYORDER=
